<?xml version="1.0" standalone="no"?>
<!DOCTYPE svg PUBLIC "-//W3C//DTD SVG 20010904//EN"
 "http://www.w3.org/TR/2001/REC-SVG-20010904/DTD/svg10.dtd">
<svg version="1.0" xmlns="http://www.w3.org/2000/svg"
 width="148.000000pt" height="108.000000pt" viewBox="0 0 148.000000 108.000000"
 preserveAspectRatio="xMidYMid meet">
<metadata>
Created by potrace 1.10, written by Peter Selinger 2001-2011
</metadata>
<g transform="translate(0.000000,108.000000) scale(0.100000,-0.100000)"
fill="#ffffff" stroke="none">
<path d="M700 1069 c-19 -5 -52 -11 -74 -14 -21 -4 -48 -10 -60 -15 -13 -4
-40 -11 -62 -14 -21 -4 -55 -11 -74 -16 -19 -5 -46 -11 -60 -14 -14 -2 -52
-11 -85 -19 -33 -9 -75 -19 -93 -22 -18 -3 -58 -12 -89 -20 -32 -8 -65 -15
-75 -15 -37 0 -16 -18 44 -38 35 -12 89 -31 121 -42 51 -17 61 -18 73 -5 8 7
40 19 72 25 31 7 131 30 222 52 184 45 245 52 245 28 0 -10 -12 -16 -35 -18
-42 -4 -429 -87 -483 -104 -37 -11 -38 -13 -36 -55 2 -24 -2 -48 -9 -55 -15
-15 -16 -45 -2 -53 13 -8 13 -52 0 -57 -5 -1 -11 -58 -12 -125 -3 -118 -2
-122 22 -148 14 -15 79 -54 146 -87 66 -32 145 -79 175 -104 72 -60 89 -68
194 -89 50 -10 102 -24 116 -31 23 -11 29 -11 39 1 6 7 18 11 26 8 8 -3 17 5
24 21 5 15 21 31 36 36 21 8 24 13 15 24 -6 7 -8 22 -4 31 4 12 3 16 -4 12 -6
-4 -33 0 -59 8 -27 8 -63 18 -80 21 -18 2 -72 16 -120 30 -49 13 -100 27 -114
29 -100 21 -247 95 -288 144 -18 22 -31 75 -36 150 -3 35 -10 67 -17 71 -11 8
-9 37 5 71 4 10 1 23 -8 32 -10 10 -16 33 -16 62 0 41 2 46 18 40 9 -4 35 -13
57 -20 22 -8 78 -28 125 -45 47 -17 131 -47 187 -66 l103 -35 202 81 c112 45
228 92 258 105 30 13 99 41 153 62 53 20 97 41 97 46 0 4 -6 7 -12 6 -7 -2
-33 1 -58 5 -25 5 -56 10 -70 12 -14 2 -54 11 -90 18 -99 22 -227 47 -263 53
-18 2 -48 8 -67 13 -19 5 -55 12 -80 15 -25 3 -58 10 -75 14 -16 4 -46 4 -65
0z m82 -35 c13 -2 37 -7 53 -10 17 -4 39 -8 50 -10 28 -4 64 -12 83 -18 9 -3
33 -8 52 -10 19 -2 67 -11 105 -19 39 -9 84 -18 100 -20 17 -3 48 -8 70 -12
22 -4 47 -11 55 -15 17 -10 46 3 -300 -136 -267 -108 -297 -117 -315 -104 -5
4 -75 30 -155 58 -156 54 -198 70 -190 72 3 1 16 3 30 6 14 2 62 14 108 25 45
11 92 22 105 24 29 6 160 25 169 25 4 0 15 11 24 25 16 25 16 27 -6 50 -27 29
-70 32 -123 10 -19 -8 -50 -17 -68 -20 -19 -3 -74 -15 -124 -26 -49 -12 -119
-27 -155 -35 -36 -8 -75 -19 -87 -25 -17 -9 -35 -8 -82 7 -56 16 -79 33 -48
35 19 1 45 6 137 28 47 11 159 37 250 57 91 20 174 40 185 45 11 4 28 5 37 3
9 -3 27 -7 40 -10z m-501 -451 c1 -5 3 -24 5 -43 14 -152 29 -181 121 -241 37
-25 100 -55 138 -67 179 -56 233 -71 265 -77 84 -15 170 -40 170 -50 0 -6 -14
-23 -31 -38 -31 -27 -72 -36 -83 -18 -4 5 -25 12 -49 16 -110 18 -162 37 -219
83 -32 26 -115 77 -185 114 -71 37 -136 77 -145 90 -15 20 -17 38 -11 131 3
59 10 107 15 107 4 0 9 -3 9 -7z"/>
<path d="M1139 750 c-9 -5 -96 -41 -192 -80 l-177 -71 -177 62 c-98 33 -186
65 -195 70 -17 9 -18 1 -18 -100 l0 -109 40 -60 c73 -109 194 -172 343 -178
156 -7 284 54 365 175 l42 63 0 119 c0 65 -3 119 -7 119 -5 0 -15 -5 -24 -10z
m-8 -140 c3 -93 2 -97 -29 -142 -80 -116 -253 -178 -415 -147 -65 12 -156 58
-200 102 -66 66 -77 92 -77 185 0 81 8 98 36 73 5 -5 34 -16 64 -25 30 -10 64
-21 75 -26 37 -17 173 -60 189 -60 9 0 24 4 34 10 9 5 58 25 107 44 50 20 117
47 150 60 33 14 60 24 62 23 1 -1 3 -45 4 -97z"/>
</g>
</svg>
