<?xml version="1.0" standalone="no"?>
<!DOCTYPE svg PUBLIC "-//W3C//DTD SVG 20010904//EN"
 "http://www.w3.org/TR/2001/REC-SVG-20010904/DTD/svg10.dtd">
<svg version="1.0" xmlns="http://www.w3.org/2000/svg"
 width="236.000000pt" height="77.000000pt" viewBox="0 0 236.000000 77.000000"
 preserveAspectRatio="xMidYMid meet">
<metadata>
Created by potrace 1.10, written by Peter Selinger 2001-2011
</metadata>
<g transform="translate(0.000000,77.000000) scale(0.100000,-0.100000)"
fill="#7c4dff" stroke="none">
<path d="M997 514 c-4 -4 -7 -52 -7 -106 0 -97 0 -98 -24 -98 -25 0 -25 1 -23
85 l2 85 -27 0 -28 0 0 -85 c0 -84 0 -85 -25 -85 -18 0 -25 -5 -25 -20 0 -19
7 -20 94 -20 68 0 97 4 105 14 8 9 11 51 9 122 -3 101 -5 109 -23 112 -12 2
-24 0 -28 -4z"/>
<path d="M1347 514 c-4 -4 -7 -52 -7 -106 l0 -99 -62 3 c-57 3 -63 5 -66 26
-2 13 2 30 8 37 10 12 9 16 -4 21 -26 10 -56 -24 -56 -62 0 -60 15 -64 275
-64 166 0 234 3 243 12 18 18 16 134 -3 142 -33 12 -45 -4 -45 -60 l0 -54 -50
0 -50 0 0 55 c0 54 0 55 -30 55 -30 0 -30 -1 -30 -55 l0 -55 -35 0 -34 0 -3
103 c-3 94 -5 102 -23 105 -12 2 -24 0 -28 -4z"/>
<path d="M647 494 c-17 -18 -6 -35 21 -32 16 2 27 9 27 18 0 16 -36 26 -48 14z"/>
<path d="M217 484 c-16 -16 -6 -34 19 -34 19 0 25 5 22 17 -3 19 -29 29 -41
17z"/>
<path d="M1617 483 c-20 -19 -4 -31 41 -31 45 1 67 13 56 30 -8 13 -44 9 -44
-4 0 -9 -3 -9 -12 0 -13 13 -31 16 -41 5z"/>
<path d="M1253 441 c-3 -12 -9 -21 -14 -21 -5 0 -9 -4 -9 -10 0 -5 20 -10 45
-10 25 0 45 5 45 10 0 6 -11 10 -25 10 -14 0 -25 4 -25 10 0 5 8 9 18 7 9 -1
18 3 20 8 1 6 -9 11 -23 13 -20 3 -28 -2 -32 -17z"/>
<path d="M1793 419 c-84 -24 -85 -129 -1 -146 33 -6 33 -26 -1 -31 -32 -5 -23
-36 12 -40 33 -4 67 22 67 50 0 16 8 18 63 18 36 0 68 5 75 12 18 18 16 134
-3 142 -33 12 -45 -4 -45 -60 l0 -54 -46 0 -46 0 4 55 c3 47 0 55 -17 59 -23
7 -21 7 -62 -5z m27 -70 c0 -33 -3 -40 -17 -37 -25 5 -28 36 -7 59 9 10 19 19
21 19 1 0 3 -18 3 -41z m30 -65 c0 -8 -4 -12 -10 -9 -5 3 -10 10 -10 16 0 5 5
9 10 9 6 0 10 -7 10 -16z"/>
<path d="M205 410 c-4 -6 -3 -35 0 -65 9 -71 1 -105 -26 -105 -35 0 -19 -34
17 -38 35 -3 64 18 64 49 0 22 24 23 273 20 95 -2 143 1 153 10 9 8 14 32 14
75 l0 64 -30 0 c-30 0 -30 0 -30 -56 l0 -55 -32 3 c-33 3 -33 4 -33 56 0 50
-1 52 -27 52 -27 0 -28 -2 -28 -55 0 -44 -3 -55 -16 -55 -13 0 -15 9 -12 49 2
42 0 51 -15 55 -37 9 -48 -4 -45 -52 2 -29 -1 -46 -9 -49 -9 -3 -13 9 -13 41
0 45 -1 46 -31 46 -30 0 -30 -1 -27 -42 l3 -43 -49 -3 -48 -3 4 55 c3 55 2 56
-24 56 -15 0 -30 -5 -33 -10z m32 -132 c-3 -7 -5 -2 -5 12 0 14 2 19 5 13 2
-7 2 -19 0 -25z"/>
<path d="M765 410 c-4 -6 -4 -33 0 -60 9 -67 -1 -110 -27 -110 -33 0 -18 -35
17 -38 53 -4 60 8 65 118 l5 100 -27 0 c-15 0 -30 -5 -33 -10z"/>
<path d="M1457 243 c-20 -19 -4 -31 41 -31 45 1 67 13 56 30 -8 13 -44 9 -44
-4 0 -9 -3 -9 -12 0 -13 13 -31 16 -41 5z"/>
<path d="M1950 236 c-10 -13 -9 -17 4 -22 22 -8 49 3 44 19 -7 18 -33 20 -48
3z"/>
</g>
</svg>
