<?xml version="1.0" standalone="no"?>
<!DOCTYPE svg PUBLIC "-//W3C//DTD SVG 20010904//EN"
 "http://www.w3.org/TR/2001/REC-SVG-20010904/DTD/svg10.dtd">
<svg version="1.0" xmlns="http://www.w3.org/2000/svg"
 width="300.000000pt" height="119.000000pt" viewBox="0 0 300.000000 119.000000"
 preserveAspectRatio="xMidYMid meet">
<metadata>
Created by potrace 1.10, written by Peter Selinger 2001-2011
</metadata>
<g transform="translate(0.000000,119.000000) scale(0.100000,-0.100000)"
fill="#ff5555" stroke="none">
<path d="M862 811 c-151 -71 -258 -285 -182 -366 61 -66 148 -72 254 -19 50
24 61 35 73 68 7 22 12 41 10 42 -2 2 -39 -15 -84 -37 -52 -27 -87 -39 -100
-35 -20 6 -49 54 -39 64 3 3 37 5 75 6 63 1 73 4 100 30 52 50 43 56 -70 56
-99 0 -100 0 -94 23 19 61 108 158 128 138 12 -12 -8 -72 -34 -105 -26 -33
-18 -47 22 -36 49 14 79 39 95 75 35 86 -55 142 -154 96z m-72 -216 c11 -13
10 -19 -9 -38 -25 -28 -26 -48 -5 -88 20 -40 11 -47 -31 -25 -65 35 -67 108
-7 201 l26 40 6 -37 c4 -20 13 -44 20 -53z"/>
<path d="M1268 823 c-20 -5 -23 -14 -7 -30 7 -7 -7 -42 -48 -116 -45 -82 -63
-107 -79 -107 -22 0 -64 -38 -64 -58 0 -6 7 -15 15 -19 13 -8 11 -14 -10 -43
-35 -48 -32 -60 13 -60 44 0 62 12 91 60 20 33 23 35 78 35 32 1 65 4 73 8 12
6 19 -2 29 -30 26 -73 60 -89 121 -58 l29 15 -29 63 c-28 61 -44 118 -70 241
-19 91 -61 120 -142 99z m93 -70 c6 -15 16 -59 24 -98 7 -38 25 -101 39 -139
14 -37 26 -70 26 -72 0 -2 -9 -4 -20 -4 -13 0 -24 10 -30 25 -5 14 -22 37 -37
51 -23 21 -25 28 -15 44 7 11 12 25 12 32 0 34 -23 88 -47 112 -23 23 -25 30
-15 51 16 34 50 33 63 -2z m-47 -127 l13 -56 -43 0 c-24 0 -44 2 -44 4 0 11
53 117 57 113 2 -3 10 -30 17 -61z m-94 -71 c14 -16 5 -35 -16 -35 -8 0 -26
-12 -40 -27 -21 -23 -27 -25 -34 -13 -16 24 -11 40 13 49 13 5 29 16 36 25 17
20 25 20 41 1z"/>
<path d="M1674 819 c-36 -10 -91 -67 -100 -104 -11 -43 5 -76 66 -139 65 -68
79 -101 55 -131 -15 -20 -15 -20 -40 8 -14 15 -25 36 -25 46 0 33 -25 44 -60
26 -59 -31 -50 -77 25 -120 37 -22 54 -27 91 -22 72 8 124 69 124 146 0 35 -8
49 -55 102 -42 47 -55 69 -55 93 0 29 15 56 30 56 12 0 30 -51 30 -85 0 -43
20 -46 49 -9 29 37 34 61 21 93 -19 47 -80 62 -156 40z m-9 -124 c2 -11 27
-47 55 -80 49 -58 61 -93 41 -123 -6 -10 -14 -1 -30 30 -13 24 -43 64 -68 90
-52 53 -60 92 -27 129 l19 21 3 -23 c1 -13 5 -33 7 -44z"/>
<path d="M1953 810 c-32 -14 -43 -25 -44 -42 -4 -98 20 -197 73 -302 29 -57
29 -60 12 -73 -10 -7 -36 -16 -57 -20 -38 -6 -62 -29 -69 -67 -9 -54 89 -38
158 26 24 22 62 69 84 105 48 76 180 339 180 359 0 20 -28 17 -61 -7 -34 -24
-51 -56 -104 -189 -20 -52 -41 -99 -45 -103 -11 -12 -29 68 -41 185 -18 168
-13 162 -86 128z m41 -102 c15 -133 28 -189 53 -219 24 -28 25 -65 2 -57 -13
4 -68 127 -85 193 -15 53 -18 127 -7 138 19 20 31 2 37 -55z"/>
</g>
</svg>
